<?xml version="1.0" encoding="utf-8"?>
<!-- Generator: Adobe Illustrator 18.1.1, SVG Export Plug-In . SVG Version: 6.00 Build 0)  -->
<svg version="1.1" id="圖層_1" xmlns="http://www.w3.org/2000/svg" xmlns:xlink="http://www.w3.org/1999/xlink" x="0px" y="0px"
	 viewBox="-349 262.4 141.7 70.9" enable-background="new -349 262.4 141.7 70.9" xml:space="preserve">
<g>
	<path fill="#FFFFFF" d="M-266.4,319.6c0,0.3-0.1,0.6,0,0.9c-0.1,0.1,0,0.3,0,0.4c0,0.4,0,0.8-0.2,1.3c-0.2,0.7-0.7,1-1.3,1
		c-0.2,0-0.3,0-0.5,0c-0.8-0.1-1.3-0.7-1.3-1.5c0-0.3,0.1-0.5,0-0.8c0.1-0.1,0-0.3,0-0.5c0-0.3,0.1-0.7,0-1c0-0.1,0-0.3,0-0.4
		c0-0.3,0.1-0.6,0-0.9c0.1-0.1,0-0.3,0-0.5c0-0.1,0-0.3,0-0.4c0-0.6-0.1-0.7-0.6-0.7c-0.3,0-0.7-0.1-1-0.1c-0.1-0.1-0.3,0-0.4,0
		c-0.3,0-0.6-0.1-0.9,0c-0.1-0.1-0.3,0-0.5-0.1c-0.9-0.1-1.8-0.1-2.7-0.3c0,0,0,0,0,0c-0.8-0.5-1.3,0.1-1.8,0.5
		c-0.8,0.6-1.5,1.3-2.4,1.7c-0.3,0.2-0.6,0.2-1,0.1c-0.3,0-0.5-0.5-0.5-0.9c-0.1-0.7,0.4-1.1,0.9-1.4c0.6-0.4,1.1-0.9,1.5-1.5
		c0.4-0.5,0.8-1,1.2-1.5c0.5-0.6,0.9-1.2,1.4-1.8c0.3-0.4,0.7-0.8,1.1-1.2c0.4-0.5,0.8-1,1.2-1.4c0.2-0.2,0.4-0.3,0.6-0.3
		c0.1,0,0.3,0,0.4,0c0.5,0,0.7,0.3,0.8,0.8c0,0.2,0,0.4,0,0.6c-0.3,0.7-0.8,1.4-1.2,2c-0.3,0.5-0.7,1-1,1.4
		c-0.2,0.3-0.4,0.5-0.8,0.7c1.3,0.2,2.6,0.4,3.8,0.4c0.1,0.1,0.3,0,0.5,0.1c0.4,0,0.7,0,1.1-0.1c0.3-0.1,0.6-0.3,0.6-0.6
		c0.1-0.4,0.2-0.8,0.1-1.2c0.1-0.1,0-0.3,0-0.4c0-0.3,0.1-0.7,0-1c0.1-0.1,0-0.3,0-0.5c0-0.3,0-0.5,0-0.8c0.1-0.1,0-0.3,0-0.4
		c0-1.2,0.3-2.3,0.6-3.4c0.1-0.6,0.2-1.2,0.2-1.8c0-0.2,0-0.3,0.1-0.5c0-0.1,0.1-0.2,0-0.2c-0.1-0.1-0.2,0-0.2,0.1
		c-0.5,0.4-1,0.8-1.5,1.2c-1.7,1.4-3.5,2.7-5.6,3.5c-0.9,0.3-1.8,0.7-2.8,0.7c-0.5,0-0.7-0.1-0.8-0.5c-0.2-0.4,0.1-0.7,0.3-0.9
		c0.9-1,2-1.6,3.1-2.3c1.2-0.7,2.4-1.4,3.5-2.3c1.1-0.9,2.3-1.6,3.2-2.7c0.2-0.3,0.5-0.6,0.6-0.9c0.3-0.7,0.8-1.1,1.4-1.6
		c0.3-0.2,0.6-0.4,0.9-0.7c0.3-0.3,0.9-0.3,1.3-0.1c0.2,0.1,0.2,0.3,0.2,0.4c-0.3,1.2-0.4,2.4-0.5,3.7c-0.2,2-0.4,4.1-0.5,6.1
		c0,0.3,0,0.6,0,0.9c-0.1,0.1,0,0.3,0,0.4c0,0.6-0.1,1.2-0.1,1.8c-0.1,0.1,0,0.3,0,0.4c0,0.3-0.1,0.5,0,0.8c-0.1,0.1,0,0.3,0,0.4
		c0,0.3-0.1,0.5,0,0.8c-0.1,0.1,0,0.3-0.1,0.5c0,0.3-0.1,0.5,0,0.8c-0.1,0.1,0,0.3-0.1,0.5c0,0.3-0.1,0.6,0,0.9
		c-0.1,0.1,0,0.3-0.1,0.5c0,0.3-0.1,0.6,0,0.9c-0.1,0.1,0,0.3-0.1,0.5c0,0.3-0.1,0.6,0,0.9c0,0.1,0,0.3,0,0.4c0,0.3-0.1,0.6,0,0.9
		C-266.4,319.3-266.4,319.5-266.4,319.6z"/>
	<path fill="#FFFFFF" d="M-280.6,276.2c-0.8,0-1.6,0.2-2.4,0.4c-1.2,0.3-2.4,0.6-3.7,0.9c-1.6,0.4-3.2,0.7-4.8,1.1
		c-1.3,0.3-2.5,0.5-3.8,0.6c-0.7,0.1-1.4,0.1-2.2,0.2c-1.1,0.1-1.4-0.9-1.2-1.7c0.1-0.4,0.5-0.6,0.9-0.7c2-0.6,4.1-1,6.1-1.5
		c2.7-0.7,5.5-1.1,8.3-1.6c1.4-0.2,2.8-0.5,4.1-0.7c1-0.1,2.1-0.2,3.1-0.3c0.1,0,0.3,0,0.4,0c0.2,0,0.5,0,0.7,0c0.1,0,0.3,0,0.4,0
		c0.3,0,0.5,0,0.8,0c0.1,0,0.3,0,0.4,0c0.3,0,0.5,0,0.8,0c0.1,0,0.3,0,0.4,0c0.9,0,1.7,0,2.5-0.2c1.4-0.2,2,0.3,2.4,1.5
		c0,0.1,0,0.3,0,0.4c-0.3,0.7-0.9,0.9-1.5,1c-1,0.2-2,0.3-2.9,0.4c-0.1,0-0.3,0-0.4,0c-0.4,0-0.8,0-1.2,0c-0.2,0-0.4,0-0.6,0
		c-0.6,0-1.2,0-1.8,0c-0.3,0.1-0.6,0-0.9,0.1c-0.6-0.1-1.2,0-1.8,0c-0.2,0.1-0.5,0-0.7,0c-0.4-0.1-0.7,0-1.1,0
		C-280.3,276.2-280.4,276.1-280.6,276.2z"/>
	<path fill="#FFFFFF" d="M-259.5,311.8c0.7,0.1,1.3,0.2,1.9,0.3c1.2,0.2,2.4,0.4,3.4,1c0.3,0.2,0.7,0.3,1.1,0.3
		c0.8,0.1,1.5,0.6,2.2,1.1c0.4,0.3,0.8,0.6,1.3,0.7c0.2,0.1,0.3,0.3,0.4,0.5c0.2,0.5,0.4,0.9,0.4,1.4c0,0.3,0,0.5-0.3,0.7
		c-1,0.6-1.9,0.6-2.9,0.1c-1.7-0.9-3.4-1.7-5.1-2.6c-0.9-0.5-1.8-0.9-2.7-1.4c-0.5-0.3-1.1-0.1-1.6,0.1c-0.3,0.1-0.6,0.4-0.9,0.6
		c-0.8,0.7-1.5,1.5-2.3,2c-0.5,0.3-0.9,0.1-1-0.5c-0.1-1.1,0-2.1,0.7-3c0.4-0.5,0.7-0.9,1.1-1.4c0.4-0.5,0.8-1,1.2-1.5
		c0.6-0.7,1.2-1.4,2-2c0.4-0.3,0.7-0.5,1.1-0.8c0.4-0.3,1.1,0,1.2,0.4c0.3,1,0.2,1.9-0.5,2.7C-259,311.1-259.2,311.4-259.5,311.8z"
		/>
	<path fill="#FFFFFF" d="M-264.2,292c-0.5-0.1-0.9-0.8-0.6-1.3c0.1-0.2,0.2-0.4,0.4-0.6c0.4-0.4,0.9-0.8,1.2-1.3
		c0.1-0.1,0.2-0.2,0.3-0.3c0.4-0.2,0.2-0.3,0-0.5c-0.5-0.5-1-0.8-1.6-1.1c-0.5-0.2-0.8-1.5-0.5-1.9c0.1-0.2,0.3-0.2,0.5-0.1
		c0.9,0.4,1.9,0.7,2.8,1.3c0.6,0.4,1.2,0.5,1.7,0c0.8-0.7,1.7-1.2,2.5-1.9c0.3-0.2,0.5-0.5,0.4-0.9c-0.1-0.3-0.5-0.3-0.9-0.3
		c-1,0.1-1.9,0.4-2.9,0.6c-0.6,0.1-1.1,0.4-1.8,0.3c-0.1,0-0.3,0-0.4-0.1c-0.2-0.1-0.4-0.2-0.5-0.5c0-0.3,0-0.6,0.3-0.8
		c0.7-0.5,1.4-0.6,2.2-0.8c1.3-0.4,2.7-0.8,4.1-1c0.8-0.1,1.6-0.2,2.4,0c0.4,0.1,0.6,0.4,0.6,0.8c-0.1,1.3-0.2,2.6-1.1,3.7
		c-0.3,0.4-0.7,0.8-1.1,1.1c-0.3,0.2-0.5,0.4-0.8,0.6c-0.4,0.4-0.4,0.8,0,1.3c0.3,0.3,0.6,0.6,1,0.9c0.5,0.4,0.5,0.9,0.3,1.5
		c0,0.1-0.1,0.2-0.1,0.2c-0.1,0.1-0.2,0-0.3,0c-0.6-0.1-1.1-0.3-1.6-0.5c-0.2-0.1-0.4-0.2-0.6-0.4c-0.7-0.5-1.4-0.5-2.1-0.2
		c-0.8,0.3-1.5,0.9-2.2,1.4c-0.4,0.3-0.8,0.6-1.2,0.7C-264,292.1-264.1,292.1-264.2,292z"/>
	<path fill="#FFFFFF" d="M-230.4,310.1c0-0.2,0.1-0.3,0.2-0.3c0.7-0.2,1.3,0,1.6,0.6c0.9,1.6,2,3.1,2.9,4.8c0.4,0.8,0.6,1.5,0.8,2.4
		c0.1,0.4-0.1,0.7-0.3,1c-0.3,0.4-1.2,0.8-1.7,0.4c-0.2-0.2-0.4-0.4-0.5-0.6c-0.5-1.2-1.2-2.4-1.8-3.6c-0.2-0.5-0.4-1-0.6-1.5
		c-0.1-0.6-0.5-1.1-0.7-1.6c-0.1-0.3,0.1-0.7-0.1-1C-230.4,310.4-230.5,310.2-230.4,310.1z"/>
	<path fill="#FFFFFF" d="M-233.5,310.8c0.1,0,0.3,0,0.3,0.2c0.3,1,0.6,2.1,0.9,3.1c0.2,0.8,0,1.5-0.3,2.3c-0.2,0.6-0.5,1.1-1,1.5
		c-0.3,0.2-0.7,0.1-1,0.1c-0.2,0-0.2-0.3-0.3-0.4c-0.3-0.6-0.4-1.3-0.4-2c0-0.1,0-0.3,0-0.4c0-0.9,0.2-1.9,0.2-2.8
		c0.1-0.2,0-0.4,0-0.5c0-0.1,0-0.2,0-0.4c0-0.1,0-0.3,0-0.5c0.1-0.1-0.1-0.2,0.1-0.3c0.1,0.1,0.3,0,0.4,0c0.3,0,0.5,0.1,0.8,0
		C-233.7,310.9-233.6,310.8-233.5,310.8z"/>
	<path fill="#FFFFFF" d="M-240,316c-0.1-0.8,0.2-1.5,0.7-2.1c0.4-0.6,0.5-1.3,0.7-2c0.2-0.7,0.5-1.3,1.1-1.7c0.2-0.2,0.9,0,1,0.3
		c0.3,0.5,0.4,1.1,0.6,1.6c0,0.1,0,0.2,0,0.2c-0.5,1.7-1.3,3.3-2.2,4.8c-0.2,0.3-0.5,0.5-0.8,0.5c-0.2,0-0.4,0-0.5-0.2
		C-239.9,317-240.1,316.5-240,316z"/>
	<path fill="#FFFFFF" d="M-308.2,301c-0.5,0-1.1,0-1.6,0C-309.2,300.9-308.7,300.9-308.2,301z"/>
	<path fill="#FFFFFF" d="M-243.3,309.7c0.4-0.1,0.9,0,1.3,0c0.2,0,0.1,0.1,0,0.2c0-0.2-0.2-0.1-0.3-0.1
		C-242.5,309.8-242.9,309.8-243.3,309.7z"/>
	<path fill="#FFFFFF" d="M-232.5,290.4c-0.1-0.4,0-0.9,0-1.4C-232.4,289.5-232.5,289.9-232.5,290.4z"/>
	<path fill="#FFFFFF" d="M-219.1,285.8c0,0.4,0.1,0.9,0,1.3C-219.2,286.6-219.3,286.2-219.1,285.8z"/>
	<path fill="#FFFFFF" d="M-276,293.4c0,0.4,0.1,0.9,0,1.3C-276.1,294.3-276.1,293.8-276,293.4z"/>
	<path fill="#FFFFFF" d="M-273.5,292.6c0-0.3-0.1-0.7,0-1C-273.5,291.9-273.4,292.2-273.5,292.6z"/>
	<path fill="#FFFFFF" d="M-276.5,276.1c0.3-0.1,0.6,0,0.9-0.1C-276,276.1-276.3,276-276.5,276.1z"/>
	<path fill="#FFFFFF" d="M-219.3,290c0,0.3,0.1,0.6-0.1,0.9C-219.4,290.6-219.5,290.3-219.3,290z"/>
	<path fill="#FFFFFF" d="M-232.5,291.6c0-0.3-0.1-0.6,0-0.9C-232.5,291-232.4,291.3-232.5,291.6z"/>
	<path fill="#FFFFFF" d="M-273.5,283.1c-0.1-0.3,0-0.5,0-0.8C-273.4,282.6-273.5,282.8-273.5,283.1z"/>
	<path fill="#FFFFFF" d="M-279.1,276.1c0.2-0.1,0.5,0,0.7,0C-278.6,276.2-278.9,276.1-279.1,276.1z"/>
	<path fill="#FFFFFF" d="M-273.8,276c0.2-0.1,0.4,0,0.6,0C-273.4,276.1-273.6,276-273.8,276z"/>
	<path fill="#FFFFFF" d="M-272.3,309.8c0-0.2,0-0.4,0-0.6C-272.2,309.5-272.2,309.6-272.3,309.8z"/>
	<path fill="#FFFFFF" d="M-307.8,282.6c-0.2,0-0.4,0-0.6,0C-308.1,282.5-307.9,282.5-307.8,282.6z"/>
	<path fill="#FFFFFF" d="M-245.8,294.1c0,0.2,0,0.4,0,0.5C-245.9,294.4-245.9,294.3-245.8,294.1z"/>
	<path fill="#FFFFFF" d="M-244.5,302.8c0.2,0,0.4,0,0.5,0C-244.1,302.9-244.3,302.9-244.5,302.8z"/>
	<path fill="#FFFFFF" d="M-273.6,295c0-0.2-0.1-0.4,0-0.5C-273.5,294.6-273.5,294.8-273.6,295z"/>
	<path fill="#FFFFFF" d="M-235.1,311.8c0,0.2,0,0.4,0,0.5C-235.1,312.2-235.2,312-235.1,311.8z"/>
	<path fill="#FFFFFF" d="M-232.6,287.4c-0.1-0.2,0-0.3,0-0.5C-232.5,287.1-232.6,287.2-232.6,287.4z"/>
	<path fill="#FFFFFF" d="M-216.8,289.6c0-0.2,0-0.4,0-0.5C-216.8,289.2-216.7,289.4-216.8,289.6z"/>
	<path fill="#FFFFFF" d="M-268.5,323.1c0.2,0,0.3,0,0.5,0C-268.1,323.2-268.3,323.2-268.5,323.1z"/>
	<path fill="#FFFFFF" d="M-266.2,315.6c0-0.2,0-0.3,0.1-0.5C-266.2,315.3-266.1,315.5-266.2,315.6z"/>
	<path fill="#FFFFFF" d="M-272.9,316.4c0.2,0,0.3,0,0.5,0.1C-272.6,316.4-272.8,316.5-272.9,316.4z"/>
	<path fill="#FFFFFF" d="M-266.3,317c0-0.2,0-0.3,0-0.5C-266.3,316.7-266.2,316.8-266.3,317z"/>
	<path fill="#FFFFFF" d="M-269.5,317.7c0,0.2,0,0.3,0,0.5C-269.6,318-269.6,317.8-269.5,317.7z"/>
	<path fill="#FFFFFF" d="M-267.2,274.5c0-0.1,0-0.3,0-0.4C-267.1,274.2-267.1,274.3-267.2,274.5z"/>
	<path fill="#FFFFFF" d="M-269.7,320.4c0,0.2,0,0.3,0,0.5C-269.7,320.7-269.8,320.6-269.7,320.4z"/>
	<path fill="#FFFFFF" d="M-273.5,281c-0.1-0.1,0-0.3,0-0.5C-273.5,280.6-273.5,280.8-273.5,281z"/>
	<path fill="#FFFFFF" d="M-280.4,279.7c0-0.1,0-0.3,0-0.4C-280.4,279.5-280.4,279.6-280.4,279.7z"/>
	<path fill="#FFFFFF" d="M-245.6,289.9c0,0.2,0,0.3,0,0.5C-245.6,290.2-245.7,290-245.6,289.9z"/>
	<path fill="#FFFFFF" d="M-240.1,295.5c0,0.2,0,0.3-0.1,0.5C-240.2,295.8-240.2,295.6-240.1,295.5z"/>
	<path fill="#FFFFFF" d="M-245.7,292.6c0,0.2,0,0.3,0,0.5C-245.8,292.9-245.9,292.7-245.7,292.6z"/>
	<path fill="#FFFFFF" d="M-243.6,302.9c0.1-0.1,0.3,0,0.5,0C-243.2,302.9-243.4,302.9-243.6,302.9z"/>
	<path fill="#FFFFFF" d="M-238.6,304.9c0-0.2-0.1-0.3,0-0.5C-238.6,304.6-238.5,304.8-238.6,304.9z"/>
	<path fill="#FFFFFF" d="M-273.1,308.5c-0.1,0-0.3,0-0.4,0C-273.4,308.4-273.2,308.4-273.1,308.5z"/>
	<path fill="#FFFFFF" d="M-230.4,310.1c0,0.2,0,0.3,0,0.5C-230.5,310.4-230.5,310.2-230.4,310.1z"/>
	<path fill="#FFFFFF" d="M-269.1,310.7c0,0.2,0,0.3,0,0.5C-269.1,311-269.2,310.8-269.1,310.7z"/>
	<path fill="#FFFFFF" d="M-235.1,311c0.1,0.1,0,0.3,0,0.5C-235.2,311.3-235.1,311.2-235.1,311z"/>
	<path fill="#FFFFFF" d="M-266.1,313.1c0-0.2,0-0.3,0.1-0.5C-266.1,312.8-266,312.9-266.1,313.1z"/>
	<path fill="#FFFFFF" d="M-266.2,314.3c0-0.2,0-0.3,0-0.5C-266.1,314-266.1,314.2-266.2,314.3z"/>
	<path fill="#FFFFFF" d="M-271,314.5c-0.2,0-0.3,0-0.5-0.1C-271.3,314.4-271.2,314.3-271,314.5z"/>
	<path fill="#FFFFFF" d="M-235.4,315.2c0,0.1,0,0.3,0,0.4C-235.4,315.4-235.4,315.3-235.4,315.2z"/>
	<path fill="#FFFFFF" d="M-272.2,272.7c-0.1,0.1-0.3,0-0.4,0C-272.4,272.6-272.3,272.7-272.2,272.7z"/>
	<path fill="#FFFFFF" d="M-273.3,272.8c-0.1,0.1-0.3,0-0.4,0C-273.6,272.7-273.5,272.8-273.3,272.8z"/>
	<path fill="#FFFFFF" d="M-274.5,272.8c-0.1,0.1-0.3,0-0.4,0C-274.8,272.8-274.7,272.8-274.5,272.8z"/>
	<path fill="#FFFFFF" d="M-275.6,272.9c-0.1,0.1-0.3,0-0.4,0C-275.9,272.8-275.8,272.9-275.6,272.9z"/>
	<path fill="#FFFFFF" d="M-272,275.9c0.1-0.1,0.3,0,0.4,0C-271.8,276-271.9,275.9-272,275.9z"/>
	<path fill="#FFFFFF" d="M-241.3,305.5c0,0.1,0,0.3,0,0.4C-241.4,305.7-241.4,305.6-241.3,305.5z"/>
	<path fill="#FFFFFF" d="M-245.7,291.3c0,0.1,0,0.3,0,0.4C-245.7,291.5-245.8,291.4-245.7,291.3z"/>
	<path fill="#FFFFFF" d="M-265.8,308.4c0-0.1,0-0.3,0-0.4C-265.8,308.2-265.7,308.3-265.8,308.4z"/>
	<path fill="#FFFFFF" d="M-304,301.3c-0.1,0-0.3,0-0.4-0.1C-304.3,301.2-304.1,301.2-304,301.3z"/>
	<path fill="#FFFFFF" d="M-256.2,290.9c0.1,0,0.2,0,0.3,0C-256,291-256.1,291-256.2,290.9z"/>
	<path fill="#FFFFFF" d="M-269,309.5c0,0.1,0,0.3-0.1,0.4C-269.1,309.7-269.1,309.6-269,309.5z"/>
	<path fill="#FFFFFF" d="M-282.9,286.3c0,0.1,0,0.3-0.1,0.4C-282.9,286.6-283,286.4-282.9,286.3z"/>
	<path fill="#FFFFFF" d="M-232.6,285.9c-0.1-0.1,0-0.3,0-0.4C-232.6,285.6-232.6,285.8-232.6,285.9z"/>
	<path fill="#FFFFFF" d="M-282.7,283.3c0,0.1,0,0.3,0,0.4C-282.7,283.5-282.8,283.4-282.7,283.3z"/>
	<path fill="#FFFFFF" d="M-208.9,301.8c-0.1-0.1,0-0.3,0-0.4C-208.9,301.6-208.9,301.7-208.9,301.8z"/>
	<path fill="#FFFFFF" d="M-236.3,282.7c-0.1,0.1-0.3,0.1-0.4,0.1C-236.5,282.6-236.4,282.7-236.3,282.7z"/>
	<path fill="#FFFFFF" d="M-240.2,296.7c0,0.1,0,0.3,0,0.4C-240.2,297-240.3,296.8-240.2,296.7z"/>
	<path fill="#FFFFFF" d="M-280.6,282.2c0-0.1,0-0.3,0-0.4C-280.5,281.9-280.5,282-280.6,282.2z"/>
	<path fill="#FFFFFF" d="M-234.6,310.8c-0.1,0-0.3,0-0.4,0C-234.9,310.7-234.8,310.7-234.6,310.8z"/>
	<path fill="#FFFFFF" d="M-233.5,310.8c-0.1,0-0.3,0-0.4,0C-233.7,310.8-233.6,310.8-233.5,310.8z"/>
	<path fill="#FFFFFF" d="M-211.6,310.9c0.1-0.1,0.3-0.1,0.4,0C-211.3,311-211.5,310.9-211.6,310.9z"/>
	<path fill="#FFFFFF" d="M-212.8,311c0.1-0.1,0.3,0,0.4,0C-212.5,311-212.7,311-212.8,311z"/>
	<path fill="#FFFFFF" d="M-273.6,296.5c0-0.1,0-0.3,0-0.4C-273.6,296.3-273.6,296.4-273.6,296.5z"/>
	<path fill="#FFFFFF" d="M-266,311.8c0-0.1,0-0.3,0-0.4C-266,311.6-265.9,311.7-266,311.8z"/>
	<path fill="#FFFFFF" d="M-280.5,281.1c0-0.1,0-0.3,0-0.4C-280.5,280.8-280.4,280.9-280.5,281.1z"/>
	<path fill="#FFFFFF" d="M-269.2,312.1c0,0.1,0,0.3,0,0.4C-269.2,312.4-269.3,312.2-269.2,312.1z"/>
	<path fill="#FFFFFF" d="M-240.1,294.2c0,0.1,0,0.3,0,0.4C-240.1,294.5-240.2,294.4-240.1,294.2z"/>
	<path fill="#FFFFFF" d="M-238.6,303.4c0-0.1,0-0.3,0-0.4C-238.5,303.1-238.5,303.3-238.6,303.4z"/>
	<path fill="#FFFFFF" d="M-241.2,303.1c0,0.1,0,0.3,0,0.4C-241.2,303.4-241.3,303.2-241.2,303.1z"/>
	<path fill="#FFFFFF" d="M-235.2,293c0.1-0.1,0.3,0,0.4,0C-235,293.1-235.1,293-235.2,293z"/>
	<path fill="#FFFFFF" d="M-280.6,276.2c0.1-0.1,0.3-0.1,0.4-0.1C-280.3,276.3-280.4,276.2-280.6,276.2z"/>
	<path fill="#FFFFFF" d="M-301.4,304.1c0-0.1,0-0.2,0-0.3C-301.3,303.9-301.3,304-301.4,304.1z"/>
	<path fill="#FFFFFF" d="M-271.5,316.4c0.1,0,0.3,0,0.4,0C-271.3,316.5-271.4,316.5-271.5,316.4z"/>
	<path fill="#FFFFFF" d="M-241.2,304.3c0,0.1,0,0.3,0,0.4C-241.3,304.5-241.3,304.4-241.2,304.3z"/>
	<path fill="#FFFFFF" d="M-264.2,292c0.1,0,0.2,0,0.3,0C-264,292.1-264.1,292.1-264.2,292z"/>
	<path fill="#FFFFFF" d="M-266.4,318.3c0-0.1,0-0.3,0-0.4C-266.3,318-266.3,318.2-266.4,318.3z"/>
	<path fill="#FFFFFF" d="M-269.6,319c0,0.1,0,0.3,0,0.4C-269.6,319.3-269.7,319.2-269.6,319z"/>
	<path fill="#FFFFFF" d="M-266.4,319.6c0-0.1,0-0.3,0-0.4C-266.4,319.3-266.3,319.5-266.4,319.6z"/>
	<path fill="#FFFFFF" d="M-306.9,301.1c-0.1,0-0.3,0-0.4,0C-307.1,301-307,301-306.9,301.1z"/>
	<path fill="#FFFFFF" d="M-266.5,320.8c0-0.1,0-0.3,0-0.4C-266.5,320.6-266.4,320.7-266.5,320.8z"/>
	<path fill="#FFFFFF" d="M-266,310.7c0-0.1,0-0.3,0-0.4C-265.9,310.4-265.9,310.5-266,310.7z"/>
	<path fill="#FFFFFF" d="M-307.8,282.6c0.4,0.1,0.8,0.2,1.3,0.3c0.2,0,0.2,0.1,0.1,0.3c-1,1.3-1.9,2.7-3.1,3.9
		c-0.6,0.6-1,1.4-1.5,2.1c-0.7,1.1-1.6,2-2.4,3c-0.8,1.1-1.4,2.3-2.2,3.4c-0.8,1.2-1.2,2.6-1.8,3.9c-0.5,0.9-0.9,1.8-1.4,2.8
		c-0.1,0.2,0,0.3,0.1,0.5c0.1,0.2,0.3,0.1,0.4,0.1c0.2-0.1,0.4-0.2,0.7-0.3c1-0.6,2.2-0.7,3.3-0.9c1.5-0.2,3-0.5,4.5-0.6
		c0.5,0,1.1,0,1.6,0c0.3,0,0.6,0,0.9,0c0.1,0.1,0.3,0,0.4,0c0.8,0.1,1.6,0.2,2.5,0.2c0.1,0.1,0.3,0,0.4,0.1c1.5,0.1,2.5,1.1,2.7,2.5
		c0,0.1,0,0.2,0,0.3c-0.2,1.8-0.8,3.4-1.9,4.8c-0.4,0.5-0.6,1-0.9,1.5c-0.7,1.1-1.8,2-2.8,2.8c-0.5,0.4-1,0.8-1.5,1.2
		c-0.5,0.4-1.1,0.7-1.7,1c-1.1,0.5-2.2,1-3.3,1.4c-1.8,0.7-3.6,0.9-5.5,0.4c-1.6-0.4-3.1-1.2-4.2-2.6c-0.8-1.1-1.4-2.3-1.4-3.8
		c0-1.6,0-3.3,0.4-4.9c0.3-1.2,0.8-2.3,1.3-3.4c0.9-2.3,2-4.4,3.2-6.6c0.8-1.4,1.8-2.6,2.7-3.9c0.5-0.7,1-1.4,1.5-2.1
		c0.7-1,1.4-2,2.2-2.9c0.3-0.4,0.7-0.7,1-0.9c0.3-0.3,0.6-0.6,0.8-0.9c0.4-0.4,0.8-0.9,1.2-1.4c0.3-0.4,0.6-0.8,1.1-1.1
		c0.3-0.2,0.5-0.2,0.8-0.3C-308.1,282.5-307.9,282.5-307.8,282.6z M-313.8,313.2c1.7-0.3,3.1-1.2,4.6-2c2.6-1.6,4.6-3.6,5.4-6.7
		c0.1-0.5-0.1-0.8-0.6-0.8c-1.4,0.1-2.7,0.2-4.1,0.3c-1.4,0.1-2.9,0.1-4.3,0.5c-2.4,0.7-5,1.2-7.2,2.5c-0.3,0.2-0.4,0.3-0.4,0.6
		c-0.1,1.1-0.1,2.2-0.2,3.3c-0.1,1.2,0.9,2.4,2.1,2.5c0.5,0.1,1,0.1,1.4,0.1C-315.9,313.5-314.9,313.4-313.8,313.2z"/>
	<path fill="#FFFFFF" d="M-245.6,289.9c-0.1-0.2,0-0.4-0.1-0.6c-0.1-0.6-0.5-0.8-1-0.9c-0.5-0.1-0.8-0.7-0.7-1.2
		c0.2-0.6,0.7-0.8,1.1-1.1c1.1-0.6,2.2-1.1,3.4-1.4c1.1-0.3,2.2-0.8,3.3-1.2c1-0.4,1.9-0.6,2.9-0.7c0.1,0,0.3,0,0.4-0.1
		c0.7,0,1.5,0,2.2,0c0.7,0,1.1,0.4,1.2,1.1c0,0.6,0.1,1.1,0.2,1.7c0,0.1,0,0.3,0,0.4c0,0.3,0,0.7,0,1c0,0.2,0,0.4,0,0.5
		c0,0.5,0,1.1,0,1.6c0.1,0.5,0,0.9,0,1.4c0,0.1,0,0.2,0,0.3c-0.1,0.3,0,0.6,0,0.9c0,0.9-0.7,1.1-1.5,1.3c-0.3,0.1-0.6,0.1-0.8,0.1
		c-0.1,0-0.3,0-0.4,0c-0.6,0-1.2,0-1.8,0.2c-0.1,0-0.2,0.1-0.2,0.2c-0.1,1.3-0.3,2.6-0.4,3.9c0,0.5,0.3,0.7,0.8,0.6
		c0.8-0.3,1.6-0.6,2.4-0.9c0.5-0.2,1.1-0.2,1.6-0.3c0.3,0,0.5,0.3,0.4,0.6c-0.1,0.4-0.4,0.7-0.7,0.9c-1.2,1.1-2.7,2-4.2,2.5
		c-0.8,0.3-1.1,0.8-1.2,1.6c0,0.2,0,0.4,0,0.6c-0.1,0.1,0,0.3,0,0.4c0,0.4-0.1,0.7,0,1.1c-0.1,0.1,0,0.3,0,0.5c0,0.1,0,0.3,0,0.5
		c0.7-0.2,1.3-0.4,2-0.5c0.5-0.1,1.1-0.3,1.6-0.4c0.3-0.1,0.4,0.2,0.6,0.3c0.6,0.4,0.6,1.1,0.1,1.6c-0.4,0.4-0.9,0.7-1.5,0.8
		c-1.3,0.3-2.4,0.8-3.6,1.2c-0.3,0.1-0.5,0.2-0.8,0.3c-0.2,0.1-0.2,0.2-0.1,0.3c0.2,0.3,0.4,0.6,0.6,0.9c0.1,0.1,0.2,0.2,0.1,0.3
		c-0.3,0.5-0.4,1.1-0.5,1.7c-0.1,0.5-0.3,1-0.5,1.5c-0.8,1.8-1.7,3.6-2.5,5.4c-0.5,1.1-1.3,1.4-2.3,1.3c-0.8-0.1-1.2-0.8-0.8-1.6
		c0.6-1.4,1.4-2.6,2.2-3.9c0.2-0.3,0.3-0.6,0.4-1c0.2-0.8,0.7-1.5,1.1-2.1c0.3-0.5,0.7-1,0.9-1.5c0.1-0.2,0-0.2-0.1-0.2
		c-0.4,0-0.8,0-1.2,0c-0.4-0.1-0.8,0.2-1.2,0.3c-0.6,0.1-1-0.2-1.5-0.4c-0.1,0-0.1-0.1,0-0.1c0,0,0,0,0,0c0.2-1,1-1.4,1.9-1.6
		c0.8-0.3,1.6-0.6,2.4-0.9c0.2-0.1,0.3-0.3,0.3-0.4c0-0.2,0.1-0.5,0-0.7c0.1-0.1,0-0.3,0-0.4c0-0.3,0.1-0.5,0-0.8c0-0.1,0-0.3,0-0.4
		c0-0.3,0.1-0.5,0-0.8c0-0.1,0-0.3,0-0.4c0,0,0-0.1,0-0.1c0-0.7,0-0.7-0.6-0.5c-0.4,0.2-0.9,0.3-1.3,0.3c-0.1,0-0.3,0-0.5,0
		c-0.1,0-0.3,0-0.4,0c-0.2-0.1-0.4,0-0.5,0c-0.4,0-0.9,0-1.3-0.1c-0.3,0-0.2-0.4-0.3-0.5c-0.1-0.7,0.5-0.8,1-1
		c1.2-0.4,2.3-0.8,3.5-1.2c0.3-0.1,0.5-0.2,0.8-0.4c0.4-0.2,0.4-0.6,0.4-1c0-0.5,0.1-0.9,0.1-1.4c0.1-0.1,0-0.3,0-0.4
		c0-0.3,0.1-0.5,0-0.8c0.1-0.1,0-0.3,0-0.5c0-0.3,0.1-0.6,0-0.9c0.1-0.1,0-0.3,0-0.4c0-0.3-0.2-0.1-0.2-0.1
		c-0.9,0.5-1.8,0.9-2.7,1.4c-0.4,0.2-0.9,0.4-1.3,0.6c-0.4,0.3-1.1,0-1.3-0.4c-0.2-0.4-0.2-0.8-0.3-1.2c0.1-0.2,0-0.4,0-0.5
		c0-0.4,0.1-0.7,0-1.1c0.1-0.1,0-0.3,0-0.5c0-0.3,0.1-0.6,0-0.9c0-0.1,0-0.3,0-0.4c0-0.3,0.1-0.6,0-0.9
		C-245.6,290.2-245.6,290-245.6,289.9z M-239.5,289.7c0.3-1.2,0.6-2.4,0.9-3.6c0.1-0.5-0.1-0.6-0.6-0.5c-1.2,0.3-2.3,0.6-3.4,1
		c-1,0.3-1.1,0.9-0.4,1.7c0.8,0.9,1.8,1.3,2.8,1.9c0.1,0,0.2,0,0.2,0.1C-239.8,290.2-239.6,290-239.5,289.7z M-234.9,284.8
		c0-0.2-0.1-0.3-0.2-0.2c-0.5,0.2-1.1,0.4-1.6,0.6c-0.1,0-0.2,0.1-0.2,0.2c0.1,1.3,0.2,2.5,0.5,3.8c0.1,0.3,0.3,0.4,0.5,0.5
		c0.3,0.1,0.4-0.1,0.6-0.3c0.1-0.2,0.2-0.4,0.3-0.7c0.2-0.8,0.2-1.5,0.2-2.3C-234.8,285.9-234.9,285.3-234.9,284.8z M-243.3,292.7
		c0.5-0.1,0.9-0.1,1.3-0.2c0.1,0,0.2-0.1,0.2-0.2c0-0.1,0-0.2-0.1-0.2c-0.3-0.2-0.7-0.5-1-0.8C-243.1,291.8-243.2,292.2-243.3,292.7
		z"/>
	<path fill="#FFFFFF" d="M-208.9,301.8c-0.1,0.5,0,1.1-0.2,1.6c-0.2,0.9-0.6,1.7-1.2,2.4c-0.3,0.3-0.4,0.7-0.3,1.1
		c0.2,0.4,0.5,0.6,1,0.7c0.9,0.1,1.5,0.6,1.5,1.4c0.1,0.5-0.1,0.9-0.5,1.2c-0.5,0.3-1,0.5-1.6,0.6c-0.4,0-0.7,0.1-1.1,0.1
		c-0.1,0-0.3,0-0.4,0c-0.3,0-0.5,0-0.8,0c-0.1,0-0.3,0-0.4,0c-1,0-2,0.1-3,0.3c-1.1,0.2-2.2,0.3-3.3,0.3c-0.5,0-0.9-0.1-1.3-0.2
		c-0.8-0.4-1-1.1-0.8-1.9c0.1-0.6,0.2-1.2,0.3-1.7c0-0.4,0.1-0.8,0.2-1.2c0.1-0.9,0.2-1.8,0.3-2.7c0.1-0.7,0.2-1.3,0.3-2
		c0.1-0.7,0.1-1.4,0.2-2.1c0.1-0.4,0.1-0.9,0.2-1.3c0.1-0.6,0.1-1.2,0.2-1.8c0.1-0.5,0.1-1.1,0.2-1.6c0.1-0.3,0-0.5,0.1-0.8
		c0-1.1,0.1-2.2,0-3.4c0.1-0.3,0-0.6,0.1-0.9c0.1-0.8,0.1-1.7,0.2-2.5c0-0.1,0-0.3,0-0.4c0.1-0.4,0-0.9,0-1.3c0-0.3,0-0.7,0.2-1
		c0.3-0.4,0.9-0.4,1.4-0.1c0.6,0.4,0.8,1,0.8,1.7c0,0.8-0.2,1.5-0.2,2.3c0,0.1,0,0.2,0,0.3c-0.1,0.2,0,0.4,0,0.5
		c-0.1,0.7-0.1,0.7,0.6,0.6c1.2-0.2,2.4-0.6,3.6-0.8c1.1-0.2,2,0.2,2.9,0.7c0.2,0.1,0.2,0.4,0.1,0.6c-0.3,0.8-1,1.2-1.7,1.4
		c-0.9,0.3-1.9,0.5-2.8,0.7c-0.3,0.1-0.7,0.1-1,0.2c-0.5,0-0.8,0.4-1,0.8c-0.5,1.1-0.9,2.3-1.1,3.5c-0.1,0.2-0.1,0.5-0.1,0.7
		c-0.1,0.1,0,0.3,0,0.4c-0.1,0.4,0,0.7,0.1,1.1c0.2,0.7,0.8,1.1,1.5,1.1c0.8,0,1.4-0.2,2.1-0.5c0.5-0.2,1-0.3,1.6-0.3
		c0.5,0,0.9,0,1.4,0c1.1,0,1.5,0.5,1.7,1.5c0,0.1,0,0.2,0,0.2C-208.9,301.6-209,301.7-208.9,301.8z M-217.3,297.9
		c-0.1,0.1,0,0.3,0,0.4C-217.3,298.2-217.3,298.1-217.3,297.9z M-213.1,302.6c-0.3,0-0.7,0.1-1,0.3c-1,0.6-2,1-3.2,1.1
		c-0.2,0-0.3,0.1-0.3,0.3c0,1.1-0.1,2.2-0.2,3.2c0,0.2,0.1,0.2,0.2,0.3c0.4,0.1,0.8,0.2,1.2,0.2c1.3,0,2.4-0.4,3-1.7
		c0.6-1.3,1-2.5,1.6-3.8C-212.2,302.5-212.7,302.5-213.1,302.6z"/>
	<path fill="#FFFFFF" d="M-276,293.4c0-0.2,0-0.4,0-0.6c-1.3,0.3-2.6,0.7-3.9,1.1c-1.9,0.7-3.8,1.5-5.7,2.1
		c-0.5,0.1-0.9,0.3-1.4,0.2c-0.4,0-0.8-0.2-1-0.5c-0.2-0.3-0.1-0.6,0.1-0.9c0.5-0.7,1.1-1.3,1.9-1.6c0.5-0.2,1.1-0.4,1.6-0.5
		c0.7-0.1,0.9-0.6,1-1.3c0.1-0.7,0.2-1.3,0.2-2c0-0.7,0.2-1.4,0.2-2.1c0-0.2,0.1-0.5,0.1-0.7c0.1-0.1,0-0.3,0.1-0.4
		c0-0.6,0.1-1.3,0.1-1.9c0-0.2,0.1-0.5,0.1-0.8c0.1-0.1,0-0.3,0-0.4c0.1-0.9,0.1-1.7,0.2-2.6c0.1-0.6,0.1-1.1,0.4-1.7
		c0.2-0.4,0.5-0.6,0.9-0.6c0.4,0,0.6,0.2,0.8,0.7c0,0.1,0,0.1,0.1,0.2c0,0.1,0,0.3,0,0.4c0,0.3-0.1,0.6,0,0.9c-0.1,0.1,0,0.3,0,0.4
		c0,0.2,0,0.5,0,0.7c-0.1,0.1,0,0.3,0,0.4c0,0.2,0,0.4,0,0.5c-0.1,0.3,0.1,0.3,0.3,0.2c1.2-0.3,2.4-0.6,3.5-1
		c0.6-0.2,0.8-0.6,0.9-1.3c0.1-0.9-0.1-1.8,0.4-2.6c0.1-0.2,0.3-0.4,0.6-0.5c0.3-0.1,0.5,0,0.7,0.2c0.4,0.5,0.5,1.1,0.6,1.7
		c0,0.4,0.1,0.7,0.1,1.1c0,0.1,0,0.3,0,0.5c0,0.4,0,0.9,0,1.3c0.1,0.3,0,0.5,0,0.8c-0.1,0.5,0,1.1,0,1.6c0,2.2,0,4.3,0,6.5
		c0,0.1,0,0.2,0,0.4c-0.1,0.3,0,0.7,0,1c0,0.6-0.1,1.3,0,1.9c-0.1,0.2,0,0.4,0,0.5c0,0.4,0,0.8,0,1.1c0,0.1,0,0.3,0,0.4
		c0,0.9-0.3,1.7-1.1,2.3c-0.5,0.4-0.5,0.5-1,0c-0.6-0.6-0.9-1.4-0.7-2.3c0.1-0.6,0.3-1.2,0.3-1.8C-276,294.3-276.1,293.8-276,293.4z
		 M-280.1,287c1.3-0.2,2.7-0.4,4-0.6c0.2,0,0.3-0.2,0.4-0.3c0.4-0.6,0.4-1.2,0.2-1.9c-0.2-0.6-0.3-0.7-0.9-0.5
		c-1.1,0.4-2.1,0.7-3.2,1c-0.9,0.2-1.2,0.7-1.2,1.7C-280.7,287.1-280.7,287.1-280.1,287z M-280.4,290.8c0,0.3,0.1,0.4,0.3,0.3
		c1.1-0.4,2.2-0.7,3.4-1c0.8-0.2,0.8-0.2,0.9-1.1c0-0.2,0-0.3-0.3-0.2c-1.3,0.3-2.5,0.6-3.8,0.9c-0.6,0.1-0.6,0.1-0.6,0.7
		C-280.4,290.5-280.4,290.7-280.4,290.8z"/>
	<path fill="#FFFFFF" d="M-343.4,311.7c-2.9,0.4-5.2-2.5-4.8-5.1c0.4-2.5,1.3-4.7,2.9-6.7c0.7-0.9,1.3-1.8,2.1-2.6
		c0.8-0.7,1.7-1.2,2.8-1.2c0.1,0,0.2,0,0.3,0c0.7,0.2,0.9,0.6,0.4,1.2c-0.3,0.3-0.5,0.6-0.8,1c-0.1,0.2-0.3,0.4-0.1,0.6
		c0.1,0.2,0.4,0.3,0.6,0.2c1.3-0.1,2.5,0.3,3.8,0.7c1.8,0.6,2.3,1.9,2.4,3.5c0.2,1.9-0.7,3.4-2,4.7c-1.7,1.5-3.7,2.6-5.7,3.5
		c-0.5,0.2-1.1,0.1-1.7,0.2C-343.4,311.7-343.4,311.7-343.4,311.7z M-342.2,301.8c-1,0-1.6,0.5-2,1.4c-0.4,0.9-0.6,1.8-0.7,2.8
		c-0.1,1.2,0.9,2.1,2.1,2c0.7-0.1,1.4-0.2,2.1-0.6c1.3-0.6,2.4-1.5,3.5-2.3c0.4-0.3,0.6-0.7,0.6-1.2c0-0.6-0.2-1.2-0.7-1.3
		c-1.4-0.4-2.7-0.8-4.3-0.8C-341.6,301.8-341.9,301.8-342.2,301.8z"/>
</g>
</svg>
