<?xml version="1.0" encoding="utf-8"?>
<!-- Generator: Adobe Illustrator 16.0.2, SVG Export Plug-In . SVG Version: 6.00 Build 0)  -->
<!DOCTYPE svg PUBLIC "-//W3C//DTD SVG 1.1//EN" "http://www.w3.org/Graphics/SVG/1.1/DTD/svg11.dtd">
<svg version="1.1" id="圖層_1" xmlns="http://www.w3.org/2000/svg" xmlns:xlink="http://www.w3.org/1999/xlink" x="0px" y="0px"
	 width="141.73px" height="70.87px" viewBox="0 0 141.73 70.87" enable-background="new 0 0 141.73 70.87" xml:space="preserve">
<g>
	<path fill-rule="evenodd" clip-rule="evenodd" fill="#070707" d="M82.563,57.185c-0.02,0.287-0.058,0.573-0.022,0.861
		c-0.054,0.125-0.012,0.26-0.046,0.386c-0.046,0.42-0.031,0.847-0.155,1.259c-0.199,0.657-0.664,0.972-1.32,1.049
		c-0.161,0.022-0.321,0.025-0.482-0.003c-0.818-0.054-1.268-0.7-1.251-1.479c0.007-0.261,0.068-0.521,0.008-0.783
		c0.06-0.146,0.006-0.306,0.046-0.454c0.019-0.334,0.065-0.667,0.027-1.002c0.047-0.125,0.008-0.259,0.042-0.384
		c0.017-0.311,0.063-0.62,0.022-0.933c0.062-0.146,0.005-0.306,0.049-0.454c0.009-0.137,0.021-0.273,0.026-0.41
		c0.02-0.585-0.057-0.701-0.635-0.711c-0.335-0.006-0.66-0.137-0.998-0.065c-0.125-0.052-0.26-0.008-0.386-0.047
		c-0.311-0.012-0.62-0.064-0.932-0.021c-0.146-0.063-0.307-0.003-0.455-0.05c-0.911-0.052-1.82-0.122-2.715-0.311
		c-0.011-0.002-0.026,0.008-0.034,0.003c-0.783-0.458-1.278,0.053-1.814,0.513c-0.755,0.647-1.537,1.263-2.434,1.715
		c-0.312,0.156-0.635,0.169-0.962,0.129c-0.254-0.031-0.507-0.497-0.54-0.868c-0.059-0.686,0.362-1.074,0.861-1.393
		c0.603-0.384,1.073-0.886,1.487-1.458c0.375-0.52,0.783-1.015,1.182-1.515c0.471-0.589,0.939-1.178,1.423-1.755
		c0.341-0.407,0.722-0.782,1.054-1.196c0.394-0.489,0.812-0.955,1.244-1.409c0.178-0.185,0.375-0.291,0.624-0.316
		c0.137-0.029,0.275-0.031,0.413,0.002c0.48,0.037,0.703,0.331,0.775,0.776c0.036,0.184,0.032,0.368,0.002,0.552
		c-0.261,0.743-0.753,1.351-1.178,1.996c-0.326,0.493-0.687,0.965-1.028,1.448c-0.189,0.269-0.45,0.456-0.788,0.69
		c1.32,0.222,2.568,0.428,3.841,0.446c0.146,0.063,0.308,0.001,0.455,0.052c0.356,0.019,0.71,0.039,1.059-0.078
		c0.324-0.108,0.554-0.318,0.622-0.641c0.085-0.405,0.168-0.817,0.129-1.238c0.051-0.124,0.01-0.259,0.044-0.386
		c0.019-0.333,0.068-0.666,0.026-1c0.058-0.148-0.001-0.308,0.049-0.456c0.006-0.264,0.013-0.528,0.02-0.792
		c0.054-0.124,0.004-0.261,0.05-0.386c0.035-1.175,0.342-2.299,0.618-3.431c0.146-0.599,0.229-1.211,0.245-1.83
		c0.004-0.156,0.047-0.311,0.068-0.466c0.011-0.077,0.052-0.169-0.032-0.222c-0.1-0.063-0.183,0.025-0.246,0.076
		c-0.494,0.391-0.983,0.788-1.47,1.188c-1.717,1.414-3.54,2.667-5.629,3.463c-0.881,0.335-1.777,0.687-2.753,0.665
		c-0.501-0.011-0.681-0.126-0.832-0.52c-0.151-0.396,0.08-0.684,0.31-0.926c0.905-0.952,2.047-1.591,3.146-2.275
		c1.174-0.729,2.395-1.4,3.458-2.274c1.064-0.875,2.253-1.609,3.166-2.665c0.241-0.278,0.468-0.576,0.617-0.913
		c0.298-0.671,0.839-1.118,1.388-1.556c0.294-0.233,0.608-0.438,0.883-0.697c0.271-0.255,0.944-0.321,1.259-0.131
		c0.174,0.105,0.211,0.26,0.168,0.448c-0.272,1.208-0.399,2.438-0.547,3.665c-0.244,2.032-0.359,4.076-0.543,6.113
		c-0.025,0.284-0.009,0.572-0.011,0.858c-0.054,0.124-0.004,0.262-0.05,0.387c-0.04,0.61-0.125,1.218-0.09,1.832
		c-0.052,0.124-0.004,0.261-0.049,0.387c-0.01,0.264-0.064,0.526-0.021,0.792c-0.05,0.124-0.003,0.261-0.048,0.385
		c-0.008,0.265-0.063,0.528-0.018,0.793c-0.063,0.146-0.001,0.308-0.053,0.455c-0.007,0.264-0.062,0.527-0.018,0.793
		c-0.062,0.146-0.002,0.306-0.05,0.454c-0.01,0.287-0.063,0.574-0.021,0.861c-0.06,0.147,0,0.308-0.05,0.456
		c-0.009,0.287-0.063,0.573-0.018,0.861c-0.063,0.147-0.003,0.308-0.05,0.455c-0.011,0.311-0.067,0.62-0.023,0.932
		c-0.049,0.125-0.007,0.26-0.044,0.386c-0.014,0.31-0.063,0.619-0.024,0.931C82.558,56.924,82.597,57.058,82.563,57.185z"/>
	<path fill-rule="evenodd" clip-rule="evenodd" fill="#070707" d="M68.436,13.794c-0.82-0.007-1.6,0.223-2.385,0.415
		c-1.219,0.299-2.437,0.607-3.659,0.896c-1.592,0.377-3.19,0.735-4.782,1.112c-1.25,0.296-2.512,0.517-3.792,0.63
		c-0.722,0.064-1.444,0.128-2.167,0.194c-1.066,0.098-1.433-0.863-1.226-1.69c0.094-0.375,0.501-0.59,0.909-0.71
		c2.012-0.592,4.062-1.031,6.098-1.524c2.746-0.665,5.535-1.103,8.312-1.603c1.379-0.249,2.757-0.51,4.145-0.706
		c1.024-0.144,2.062-0.19,3.093-0.28c0.125-0.045,0.262,0.002,0.387-0.049c0.242,0.043,0.481-0.012,0.723-0.021
		c0.125-0.045,0.262,0.002,0.385-0.048c0.266,0.043,0.529-0.012,0.793-0.021c0.125-0.045,0.262,0.002,0.386-0.048
		c0.266,0.042,0.528-0.012,0.793-0.021c0.125-0.045,0.262,0.002,0.386-0.049c0.854,0.028,1.705-0.039,2.543-0.159
		c1.375-0.198,2.043,0.312,2.42,1.539c0.032,0.137,0.029,0.275,0.002,0.413c-0.25,0.713-0.879,0.883-1.508,1.021
		c-0.97,0.213-1.956,0.311-2.944,0.382c-0.126,0.038-0.261-0.003-0.386,0.044c-0.403,0.009-0.806,0.019-1.209,0.027
		c-0.195,0.044-0.399-0.02-0.593,0.045c-0.611-0.049-1.222,0.016-1.832,0.019c-0.288,0.062-0.585-0.025-0.871,0.051
		c-0.611-0.061-1.221,0.013-1.832,0.021c-0.242,0.056-0.492-0.023-0.732,0.049c-0.358-0.065-0.713,0.011-1.069,0.019
		C68.697,13.789,68.559,13.738,68.436,13.794z"/>
	<path fill-rule="evenodd" clip-rule="evenodd" fill="#070707" d="M89.513,49.351c0.655,0.122,1.265,0.245,1.879,0.349
		c1.192,0.201,2.366,0.448,3.449,1.024c0.35,0.186,0.742,0.269,1.142,0.321c0.835,0.109,1.499,0.584,2.158,1.06
		c0.398,0.286,0.809,0.553,1.274,0.716c0.245,0.087,0.346,0.301,0.442,0.502c0.216,0.452,0.377,0.923,0.444,1.426
		c0.038,0.293-0.017,0.512-0.285,0.668c-0.957,0.555-1.913,0.633-2.924,0.109c-1.694-0.877-3.403-1.724-5.113-2.569
		c-0.918-0.454-1.839-0.896-2.726-1.414c-0.508-0.295-1.072-0.133-1.592,0.094c-0.331,0.145-0.604,0.364-0.867,0.611
		c-0.752,0.707-1.458,1.468-2.334,2.032c-0.46,0.296-0.939,0.07-0.988-0.473c-0.098-1.071-0.009-2.103,0.677-2.991
		c0.358-0.465,0.742-0.91,1.111-1.367c0.394-0.487,0.784-0.979,1.176-1.468c0.583-0.728,1.214-1.401,1.968-1.963
		c0.353-0.263,0.709-0.52,1.069-0.771c0.375-0.263,1.052-0.006,1.199,0.435c0.333,0.994,0.151,1.89-0.482,2.711
		C89.962,48.689,89.757,49.004,89.513,49.351z"/>
	<path fill-rule="evenodd" clip-rule="evenodd" fill="#070707" d="M84.764,29.613c-0.454-0.083-0.858-0.758-0.563-1.269
		c0.119-0.206,0.247-0.395,0.424-0.565c0.427-0.409,0.865-0.81,1.18-1.322c0.064-0.105,0.16-0.22,0.269-0.264
		c0.398-0.163,0.227-0.325,0.027-0.512c-0.489-0.462-1.039-0.849-1.643-1.129c-0.473-0.219-0.754-1.514-0.482-1.883
		c0.133-0.18,0.309-0.233,0.532-0.146c0.943,0.371,1.906,0.712,2.751,1.277c0.612,0.41,1.192,0.457,1.728-0.021
		c0.773-0.688,1.667-1.207,2.461-1.862c0.273-0.226,0.504-0.546,0.357-0.875c-0.137-0.311-0.532-0.299-0.851-0.273
		c-0.992,0.08-1.945,0.356-2.907,0.595c-0.576,0.143-1.139,0.4-1.758,0.306c-0.14-0.021-0.287-0.03-0.417-0.082
		c-0.226-0.09-0.448-0.193-0.464-0.496c-0.018-0.335,0.032-0.63,0.333-0.84c0.651-0.456,1.424-0.587,2.163-0.793
		c1.343-0.374,2.676-0.798,4.052-1.035c0.79-0.136,1.598-0.227,2.389,0.023c0.391,0.123,0.607,0.378,0.589,0.752
		c-0.069,1.335-0.245,2.646-1.106,3.748c-0.32,0.411-0.686,0.78-1.118,1.073c-0.277,0.188-0.532,0.397-0.763,0.64
		c-0.416,0.436-0.438,0.822-0.022,1.256c0.302,0.315,0.626,0.613,0.965,0.888c0.499,0.405,0.549,0.893,0.333,1.452
		c-0.028,0.074-0.051,0.151-0.076,0.227c-0.108,0.08-0.227,0.04-0.342,0.026c-0.557-0.068-1.066-0.301-1.591-0.478
		c-0.209-0.071-0.398-0.221-0.577-0.359c-0.66-0.513-1.361-0.471-2.082-0.169c-0.818,0.343-1.486,0.919-2.196,1.429
		c-0.389,0.278-0.774,0.562-1.249,0.683C84.993,29.645,84.878,29.648,84.764,29.613z"/>
	<path fill-rule="evenodd" clip-rule="evenodd" fill="#070707" d="M118.569,47.691c-0.007-0.168,0.062-0.254,0.237-0.302
		c0.721-0.194,1.251-0.041,1.619,0.599c0.932,1.618,2.041,3.13,2.857,4.816c0.364,0.752,0.604,1.545,0.762,2.363
		c0.068,0.357-0.063,0.682-0.288,0.951c-0.317,0.379-1.224,0.758-1.705,0.443c-0.244-0.159-0.368-0.398-0.471-0.64
		c-0.526-1.245-1.206-2.414-1.764-3.643c-0.22-0.484-0.432-0.971-0.561-1.49c-0.143-0.577-0.513-1.059-0.678-1.633
		c-0.098-0.344,0.054-0.681-0.056-1.01C118.578,47.999,118.523,47.84,118.569,47.691z"/>
	<path fill-rule="evenodd" clip-rule="evenodd" fill="#070707" d="M115.533,48.437c0.143,0.016,0.272,0.009,0.325,0.209
		c0.274,1.038,0.557,2.074,0.857,3.106c0.231,0.8-0.004,1.534-0.293,2.255c-0.229,0.57-0.48,1.146-1.039,1.488
		c-0.312,0.191-0.667,0.099-0.999,0.069c-0.215-0.019-0.235-0.274-0.313-0.441c-0.282-0.622-0.409-1.278-0.424-1.958
		c-0.03-0.138-0.028-0.275-0.001-0.414c0.01-0.938,0.198-1.864,0.229-2.802c0.066-0.17,0.002-0.353,0.048-0.523
		c0-0.117-0.001-0.233-0.001-0.351c-0.04-0.149,0.014-0.308-0.047-0.454c0.058-0.092-0.062-0.237,0.094-0.3
		c0.123,0.052,0.259,0.008,0.385,0.046c0.265,0.017,0.527,0.063,0.793,0.023C115.271,48.442,115.407,48.398,115.533,48.437z"/>
	<path fill-rule="evenodd" clip-rule="evenodd" fill="#070707" d="M109.044,53.563c-0.074-0.826,0.185-1.486,0.675-2.121
		c0.43-0.557,0.531-1.284,0.705-1.961c0.176-0.687,0.525-1.263,1.063-1.721c0.234-0.198,0.85-0.026,1.022,0.281
		c0.287,0.507,0.428,1.071,0.609,1.618c0.029,0.087,0.004,0.159-0.017,0.224c-0.538,1.688-1.303,3.276-2.197,4.801
		c-0.181,0.306-0.508,0.455-0.838,0.54c-0.184,0.047-0.368-0.036-0.522-0.182C109.104,54.625,108.94,54.122,109.044,53.563z"/>
	<path fill-rule="evenodd" clip-rule="evenodd" fill="#FCFCFB" d="M40.822,38.599c-0.531-0.001-1.061-0.003-1.591-0.005
		C39.761,38.515,40.292,38.499,40.822,38.599z"/>
	<path fill-rule="evenodd" clip-rule="evenodd" fill="#FCFCFB" d="M105.723,47.34c0.442-0.115,0.892-0.04,1.338-0.044
		c0.151-0.001,0.077,0.116,0.02,0.188c-0.024-0.169-0.154-0.138-0.264-0.139C106.451,47.342,106.087,47.341,105.723,47.34z"/>
	<path fill-rule="evenodd" clip-rule="evenodd" fill="#FCFCFB" d="M116.497,27.979c-0.11-0.449-0.023-0.905-0.049-1.356
		C116.573,27.071,116.479,27.527,116.497,27.979z"/>
	<path fill-rule="evenodd" clip-rule="evenodd" fill="#FCFCFB" d="M129.866,23.365c-0.021,0.429,0.062,0.861-0.048,1.287
		C129.834,24.224,129.749,23.791,129.866,23.365z"/>
	<path fill-rule="evenodd" clip-rule="evenodd" fill="#FCFCFB" d="M72.966,30.989c-0.02,0.428,0.06,0.861-0.047,1.287
		C72.933,31.847,72.85,31.415,72.966,30.989z"/>
	<path fill-rule="evenodd" clip-rule="evenodd" fill="#FCFCFB" d="M75.492,30.154c0.017-0.336-0.063-0.677,0.048-1.009
		C75.521,29.482,75.604,29.823,75.492,30.154z"/>
	<path fill-rule="evenodd" clip-rule="evenodd" fill="#FCFCFB" d="M72.455,13.655c0.285-0.109,0.581-0.028,0.871-0.051
		C73.042,13.724,72.745,13.638,72.455,13.655z"/>
	<path fill-rule="evenodd" clip-rule="evenodd" fill="#FCFCFB" d="M129.66,27.593c-0.022,0.29,0.059,0.586-0.051,0.872
		C129.627,28.174,129.541,27.877,129.66,27.593z"/>
	<path fill-rule="evenodd" clip-rule="evenodd" fill="#FCFCFB" d="M116.454,29.184c0.012-0.291-0.063-0.585,0.043-0.871
		C116.485,28.604,116.561,28.898,116.454,29.184z"/>
	<path fill-rule="evenodd" clip-rule="evenodd" fill="#FCFCFB" d="M75.54,20.702c-0.104-0.262-0.036-0.534-0.046-0.801
		C75.602,20.162,75.523,20.435,75.54,20.702z"/>
	<path fill-rule="evenodd" clip-rule="evenodd" fill="#FCFCFB" d="M69.891,13.725c0.238-0.105,0.488-0.032,0.732-0.049
		C70.385,13.792,70.135,13.707,69.891,13.725z"/>
	<path fill-rule="evenodd" clip-rule="evenodd" fill="#FCFCFB" d="M75.158,13.586c0.191-0.1,0.395-0.037,0.593-0.045
		C75.56,13.646,75.355,13.572,75.158,13.586z"/>
	<path fill-rule="evenodd" clip-rule="evenodd" fill="#FCFCFB" d="M76.668,47.412c-0.001-0.184-0.002-0.368-0.002-0.552
		C76.758,47.044,76.755,47.229,76.668,47.412z"/>
	<path fill-rule="evenodd" clip-rule="evenodd" fill="#FCFCFB" d="M41.237,20.163c-0.184-0.001-0.368-0.002-0.552-0.003
		C40.87,20.076,41.054,20.072,41.237,20.163z"/>
	<path fill-rule="evenodd" clip-rule="evenodd" fill="#FCFCFB" d="M103.184,31.682c-0.011,0.175,0.046,0.356-0.047,0.524
		C103.147,32.031,103.075,31.849,103.184,31.682z"/>
	<path fill-rule="evenodd" clip-rule="evenodd" fill="#FCFCFB" d="M104.516,40.427c0.175,0.015,0.356-0.047,0.524,0.048
		C104.865,40.465,104.682,40.537,104.516,40.427z"/>
	<path fill-rule="evenodd" clip-rule="evenodd" fill="#FCFCFB" d="M75.425,32.58c0.006-0.175-0.052-0.355,0.042-0.523
		C75.459,32.231,75.525,32.413,75.425,32.58z"/>
	<path fill-rule="evenodd" clip-rule="evenodd" fill="#FCFCFB" d="M113.924,49.426c-0.005,0.175,0.046,0.355-0.048,0.523
		C113.892,49.774,113.818,49.591,113.924,49.426z"/>
	<path fill-rule="evenodd" clip-rule="evenodd" fill="#FCFCFB" d="M116.429,24.999c-0.095-0.167-0.039-0.349-0.047-0.524
		C116.487,24.641,116.416,24.824,116.429,24.999z"/>
	<path fill-rule="evenodd" clip-rule="evenodd" fill="#FCFCFB" d="M132.184,27.174c0.008-0.175-0.048-0.356,0.047-0.524
		C132.218,26.825,132.289,27.008,132.184,27.174z"/>
	<path fill-rule="evenodd" clip-rule="evenodd" fill="#FCFCFB" d="M80.536,60.736c0.161,0.001,0.321,0.001,0.482,0.003
		C80.857,60.816,80.696,60.819,80.536,60.736z"/>
	<path fill-rule="evenodd" clip-rule="evenodd" fill="#FCFCFB" d="M82.766,53.234c0.009-0.152-0.039-0.312,0.05-0.456
		C82.804,52.932,82.872,53.092,82.766,53.234z"/>
	<path fill-rule="evenodd" clip-rule="evenodd" fill="#FCFCFB" d="M76.101,53.943c0.153,0.003,0.311-0.037,0.455,0.05
		C76.403,53.979,76.243,54.047,76.101,53.943z"/>
	<path fill-rule="evenodd" clip-rule="evenodd" fill="#FCFCFB" d="M82.698,54.551c0.003-0.152-0.037-0.311,0.05-0.455
		C82.734,54.248,82.802,54.409,82.698,54.551z"/>
	<path fill-rule="evenodd" clip-rule="evenodd" fill="#FCFCFB" d="M79.479,55.247c-0.002,0.153,0.038,0.311-0.049,0.454
		C79.443,55.55,79.378,55.389,79.479,55.247z"/>
	<path fill-rule="evenodd" clip-rule="evenodd" fill="#FCFCFB" d="M81.798,12.065c0-0.137-0.001-0.275-0.002-0.413
		C81.883,11.79,81.88,11.928,81.798,12.065z"/>
	<path fill-rule="evenodd" clip-rule="evenodd" fill="#FCFCFB" d="M79.339,58.02c0,0.153,0.041,0.31-0.046,0.454
		C79.305,58.322,79.241,58.162,79.339,58.02z"/>
	<path fill-rule="evenodd" clip-rule="evenodd" fill="#FCFCFB" d="M75.469,18.553c-0.089-0.144-0.041-0.302-0.048-0.456
		C75.524,18.24,75.459,18.401,75.469,18.553z"/>
	<path fill-rule="evenodd" clip-rule="evenodd" fill="#FCFCFB" d="M68.559,17.333c0.001-0.137,0.001-0.275,0.002-0.413
		C68.643,17.058,68.645,17.196,68.559,17.333z"/>
	<path fill-rule="evenodd" clip-rule="evenodd" fill="#FCFCFB" d="M103.388,27.455c-0.002,0.153,0.045,0.31-0.045,0.454
		C103.353,27.757,103.291,27.598,103.388,27.455z"/>
	<path fill-rule="evenodd" clip-rule="evenodd" fill="#FCFCFB" d="M108.866,33.068c-0.003,0.153,0.037,0.311-0.05,0.455
		C108.83,33.371,108.762,33.21,108.866,33.068z"/>
	<path fill-rule="evenodd" clip-rule="evenodd" fill="#FCFCFB" d="M103.254,30.157c-0.011,0.152,0.044,0.312-0.048,0.456
		C103.215,30.46,103.147,30.299,103.254,30.157z"/>
	<path fill-rule="evenodd" clip-rule="evenodd" fill="#FCFCFB" d="M105.444,40.476c0.145-0.093,0.303-0.038,0.455-0.046
		C105.756,40.53,105.597,40.467,105.444,40.476z"/>
	<path fill-rule="evenodd" clip-rule="evenodd" fill="#FCFCFB" d="M110.353,42.491c0.01-0.151-0.051-0.311,0.045-0.454
		C110.391,42.189,110.453,42.348,110.353,42.491z"/>
	<path fill-rule="evenodd" clip-rule="evenodd" fill="#FCFCFB" d="M75.891,46.084c-0.138,0-0.276-0.001-0.413-0.002
		C75.615,45.998,75.753,45.996,75.891,46.084z"/>
	<path fill-rule="evenodd" clip-rule="evenodd" fill="#FCFCFB" d="M118.569,47.691c-0.012,0.152,0.049,0.312-0.046,0.455
		C118.53,47.994,118.466,47.835,118.569,47.691z"/>
	<path fill-rule="evenodd" clip-rule="evenodd" fill="#FCFCFB" d="M79.898,48.246c-0.012,0.152,0.043,0.312-0.049,0.456
		C79.858,48.549,79.792,48.389,79.898,48.246z"/>
	<path fill-rule="evenodd" clip-rule="evenodd" fill="#FCFCFB" d="M113.876,48.621c0.087,0.144,0.047,0.301,0.047,0.454
		C113.824,48.932,113.889,48.772,113.876,48.621z"/>
	<path fill-rule="evenodd" clip-rule="evenodd" fill="#FCFCFB" d="M82.903,50.67c0.006-0.152-0.034-0.312,0.052-0.455
		C82.941,50.367,83.011,50.528,82.903,50.67z"/>
	<path fill-rule="evenodd" clip-rule="evenodd" fill="#FCFCFB" d="M82.836,51.917c0.004-0.153-0.036-0.311,0.05-0.454
		C82.873,51.614,82.94,51.775,82.836,51.917z"/>
	<path fill-rule="evenodd" clip-rule="evenodd" fill="#FCFCFB" d="M77.97,52.045c-0.153-0.006-0.311,0.034-0.455-0.052
		C77.667,52.007,77.828,51.938,77.97,52.045z"/>
	<path fill-rule="evenodd" clip-rule="evenodd" fill="#FCFCFB" d="M113.647,52.751c0,0.139,0.001,0.276,0.001,0.414
		C113.563,53.027,113.565,52.89,113.647,52.751z"/>
	<path fill-rule="evenodd" clip-rule="evenodd" fill="#FCFCFB" d="M76.833,10.273c-0.12,0.086-0.256,0.042-0.386,0.049
		C76.565,10.222,76.703,10.279,76.833,10.273z"/>
	<path fill-rule="evenodd" clip-rule="evenodd" fill="#FCFCFB" d="M75.654,10.343c-0.119,0.09-0.256,0.038-0.386,0.048
		C75.387,10.292,75.524,10.348,75.654,10.343z"/>
	<path fill-rule="evenodd" clip-rule="evenodd" fill="#FCFCFB" d="M74.476,10.413c-0.118,0.09-0.256,0.038-0.385,0.048
		C74.209,10.361,74.347,10.417,74.476,10.413z"/>
	<path fill-rule="evenodd" clip-rule="evenodd" fill="#FCFCFB" d="M73.368,10.481c-0.12,0.086-0.257,0.042-0.387,0.049
		C73.1,10.43,73.237,10.487,73.368,10.481z"/>
	<path fill-rule="evenodd" clip-rule="evenodd" fill="#FCFCFB" d="M76.96,13.514c0.12-0.091,0.257-0.037,0.386-0.044
		C77.227,13.563,77.09,13.51,76.96,13.514z"/>
	<path fill-rule="evenodd" clip-rule="evenodd" fill="#FCFCFB" d="M107.69,43.048c-0.007,0.13,0.037,0.267-0.049,0.387
		C107.647,43.305,107.591,43.166,107.69,43.048z"/>
	<path fill-rule="evenodd" clip-rule="evenodd" fill="#FCFCFB" d="M103.318,28.841c-0.002,0.13,0.044,0.265-0.043,0.385
		C103.28,29.097,103.228,28.961,103.318,28.841z"/>
	<path fill-rule="evenodd" clip-rule="evenodd" fill="#FCFCFB" d="M83.182,46.026c0.004-0.13-0.032-0.266,0.05-0.386
		C83.224,45.771,83.281,45.908,83.182,46.026z"/>
	<path fill-rule="evenodd" clip-rule="evenodd" fill="#FCFCFB" d="M44.98,38.877c-0.131-0.001-0.266,0.025-0.386-0.052
		C44.724,38.835,44.863,38.776,44.98,38.877z"/>
	<path fill-rule="evenodd" clip-rule="evenodd" fill="#FCFCFB" d="M92.804,28.509c0.113-0.009,0.229-0.017,0.342-0.026
		C93.04,28.607,92.924,28.582,92.804,28.509z"/>
	<path fill-rule="evenodd" clip-rule="evenodd" fill="#FCFCFB" d="M79.968,47.068c-0.004,0.13,0.031,0.266-0.05,0.386
		C79.926,47.325,79.867,47.187,79.968,47.068z"/>
	<path fill-rule="evenodd" clip-rule="evenodd" fill="#FCFCFB" d="M66.106,23.919c0,0.131,0.026,0.265-0.051,0.386
		C66.065,24.176,66.007,24.037,66.106,23.919z"/>
	<path fill-rule="evenodd" clip-rule="evenodd" fill="#FCFCFB" d="M116.358,23.474c-0.087-0.12-0.042-0.256-0.046-0.386
		C116.407,23.208,116.354,23.344,116.358,23.474z"/>
	<path fill-rule="evenodd" clip-rule="evenodd" fill="#FCFCFB" d="M66.313,20.87c0.001,0.131,0.028,0.265-0.05,0.386
		C66.273,21.126,66.215,20.989,66.313,20.87z"/>
	<path fill-rule="evenodd" clip-rule="evenodd" fill="#FCFCFB" d="M140.063,39.415c-0.084-0.121-0.046-0.256-0.045-0.386
		C140.109,39.149,140.056,39.285,140.063,39.415z"/>
	<path fill-rule="evenodd" clip-rule="evenodd" fill="#FCFCFB" d="M112.733,20.25c-0.12,0.077-0.255,0.051-0.387,0.051
		C112.465,20.201,112.604,20.261,112.733,20.25z"/>
	<path fill-rule="evenodd" clip-rule="evenodd" fill="#FCFCFB" d="M108.799,34.315c-0.006,0.13,0.037,0.266-0.048,0.386
		C108.756,34.571,108.699,34.434,108.799,34.315z"/>
	<path fill-rule="evenodd" clip-rule="evenodd" fill="#FCFCFB" d="M68.422,19.758c-0.002-0.13-0.03-0.264,0.048-0.385
		C68.461,19.502,68.517,19.64,68.422,19.758z"/>
	<path fill-rule="evenodd" clip-rule="evenodd" fill="#FCFCFB" d="M114.354,48.367c-0.13,0-0.265,0.037-0.385-0.046
		C114.099,48.329,114.235,48.273,114.354,48.367z"/>
	<path fill-rule="evenodd" clip-rule="evenodd" fill="#FCFCFB" d="M115.533,48.437c-0.131,0-0.266,0.037-0.386-0.046
		C115.276,48.397,115.414,48.343,115.533,48.437z"/>
	<path fill-rule="evenodd" clip-rule="evenodd" fill="#FCFCFB" d="M137.395,48.518c0.121-0.078,0.255-0.051,0.386-0.05
		C137.662,48.565,137.524,48.507,137.395,48.518z"/>
	<path fill-rule="evenodd" clip-rule="evenodd" fill="#FCFCFB" d="M136.216,48.585c0.121-0.083,0.255-0.046,0.386-0.044
		C136.481,48.632,136.346,48.578,136.216,48.585z"/>
	<path fill-rule="evenodd" clip-rule="evenodd" fill="#FCFCFB" d="M75.354,34.105c0.004-0.129-0.041-0.265,0.045-0.385
		C75.394,33.849,75.447,33.986,75.354,34.105z"/>
	<path fill-rule="evenodd" clip-rule="evenodd" fill="#FCFCFB" d="M82.974,49.422c0.01-0.128-0.042-0.266,0.048-0.385
		C83.017,49.167,83.073,49.305,82.974,49.422z"/>
	<path fill-rule="evenodd" clip-rule="evenodd" fill="#FCFCFB" d="M68.49,18.65c0.005-0.13-0.039-0.266,0.047-0.386
		C68.532,18.394,68.587,18.531,68.49,18.65z"/>
	<path fill-rule="evenodd" clip-rule="evenodd" fill="#FCFCFB" d="M79.823,49.702c0.002,0.131,0.039,0.266-0.044,0.386
		C79.786,49.958,79.732,49.822,79.823,49.702z"/>
	<path fill-rule="evenodd" clip-rule="evenodd" fill="#FCFCFB" d="M108.933,31.821c0.001,0.13,0.038,0.265-0.045,0.385
		C108.895,32.077,108.841,31.941,108.933,31.821z"/>
	<path fill-rule="evenodd" clip-rule="evenodd" fill="#FCFCFB" d="M110.419,40.967c0.007-0.129-0.037-0.266,0.049-0.386
		C110.461,40.712,110.519,40.849,110.419,40.967z"/>
	<path fill-rule="evenodd" clip-rule="evenodd" fill="#FCFCFB" d="M107.829,40.692c-0.01,0.129,0.042,0.266-0.048,0.385
		C107.786,40.947,107.729,40.811,107.829,40.692z"/>
	<path fill-rule="evenodd" clip-rule="evenodd" fill="#FCFCFB" d="M113.762,30.633c0.119-0.085,0.256-0.042,0.386-0.049
		C114.028,30.685,113.892,30.627,113.762,30.633z"/>
	<path fill-rule="evenodd" clip-rule="evenodd" fill="#FCFCFB" d="M68.436,13.794c0.121-0.077,0.255-0.051,0.386-0.051
		C68.704,13.843,68.565,13.785,68.436,13.794z"/>
	<path fill-rule="evenodd" clip-rule="evenodd" fill="#FCFCFB" d="M47.628,41.729c0.001-0.114,0.003-0.229,0.005-0.344
		C47.709,41.501,47.713,41.616,47.628,41.729z"/>
	<path fill-rule="evenodd" clip-rule="evenodd" fill="#FCFCFB" d="M77.487,54.014c0.13,0.001,0.265-0.036,0.386,0.047
		C77.743,54.053,77.606,54.108,77.487,54.014z"/>
	<path fill-rule="evenodd" clip-rule="evenodd" fill="#FCFCFB" d="M107.76,41.87c-0.01,0.129,0.042,0.267-0.048,0.386
		C107.717,42.126,107.66,41.988,107.76,41.87z"/>
	<path fill-rule="evenodd" clip-rule="evenodd" fill="#FCFCFB" d="M84.764,29.613c0.114,0.001,0.229,0.002,0.345,0.002
		C84.992,29.698,84.878,29.7,84.764,29.613z"/>
	<path fill-rule="evenodd" clip-rule="evenodd" fill="#FCFCFB" d="M82.631,55.868c0.006-0.13-0.047-0.266,0.044-0.386
		C82.671,55.612,82.725,55.748,82.631,55.868z"/>
	<path fill-rule="evenodd" clip-rule="evenodd" fill="#FCFCFB" d="M79.408,56.634c-0.006,0.128,0.049,0.264-0.042,0.384
		C79.369,56.888,79.317,56.753,79.408,56.634z"/>
	<path fill-rule="evenodd" clip-rule="evenodd" fill="#FCFCFB" d="M82.563,57.185c0.003-0.131-0.043-0.266,0.044-0.386
		C82.602,56.929,82.654,57.064,82.563,57.185z"/>
	<path fill-rule="evenodd" clip-rule="evenodd" fill="#FCFCFB" d="M42.138,38.665c-0.131,0.003-0.265,0.03-0.385-0.048
		C41.882,38.627,42.02,38.57,42.138,38.665z"/>
	<path fill-rule="evenodd" clip-rule="evenodd" fill="#FCFCFB" d="M82.494,58.432c-0.005-0.131-0.033-0.265,0.046-0.386
		C82.53,58.176,82.585,58.313,82.494,58.432z"/>
	<path fill-rule="evenodd" clip-rule="evenodd" fill="#FCFCFB" d="M83.043,48.245c0.007-0.131-0.037-0.267,0.049-0.387
		C83.086,47.988,83.143,48.126,83.043,48.245z"/>
	<path fill-rule="evenodd" clip-rule="evenodd" fill="#070707" d="M41.237,20.163c0.418,0.103,0.836,0.208,1.254,0.308
		c0.202,0.048,0.172,0.141,0.073,0.27c-1.006,1.306-1.916,2.683-3.073,3.877c-0.596,0.616-1.024,1.397-1.516,2.111
		c-0.728,1.059-1.597,2.006-2.365,3.033c-0.814,1.088-1.444,2.296-2.174,3.44c-0.78,1.224-1.172,2.634-1.831,3.917
		c-0.468,0.913-0.907,1.841-1.376,2.752c-0.119,0.23,0.009,0.349,0.118,0.502c0.127,0.177,0.278,0.124,0.426,0.053
		c0.222-0.106,0.448-0.209,0.654-0.341c1.015-0.646,2.188-0.717,3.324-0.895c1.487-0.232,2.975-0.474,4.478-0.598
		c0.531-0.021,1.061-0.032,1.591,0.005c0.311,0.006,0.621,0.013,0.931,0.019c0.124,0.055,0.26,0.009,0.385,0.048
		c0.818,0.059,1.633,0.176,2.456,0.16c0.124,0.057,0.261,0.006,0.386,0.052c1.501,0.146,2.461,1.054,2.653,2.509
		c0.021,0.115,0.028,0.229-0.005,0.344c-0.193,1.786-0.799,3.403-1.941,4.81c-0.375,0.462-0.6,1.024-0.919,1.525
		c-0.731,1.144-1.784,1.968-2.822,2.805c-0.5,0.402-0.995,0.812-1.478,1.232c-0.509,0.444-1.118,0.695-1.727,0.953
		c-1.099,0.464-2.182,0.969-3.295,1.394c-1.774,0.678-3.631,0.881-5.472,0.444c-1.636-0.389-3.126-1.214-4.172-2.555
		c-0.834-1.07-1.356-2.329-1.359-3.763c-0.004-1.642,0.015-3.278,0.384-4.885c0.275-1.193,0.839-2.288,1.301-3.415
		c0.926-2.259,2-4.449,3.187-6.582c0.773-1.39,1.819-2.587,2.739-3.873c0.5-0.699,1.004-1.394,1.508-2.089
		c0.714-0.985,1.41-1.983,2.154-2.945c0.281-0.363,0.652-0.669,1.021-0.949c0.33-0.251,0.556-0.589,0.838-0.878
		c0.436-0.445,0.811-0.949,1.227-1.415c0.339-0.379,0.64-0.792,1.084-1.078c0.255-0.164,0.521-0.238,0.8-0.306
		C40.87,20.134,41.054,20.128,41.237,20.163z M35.169,50.767c1.676-0.336,3.143-1.156,4.593-2.012
		c2.647-1.561,4.649-3.639,5.43-6.712c0.133-0.523-0.076-0.816-0.609-0.78c-1.356,0.091-2.713,0.164-4.069,0.263
		c-1.431,0.105-2.864,0.129-4.271,0.538c-2.449,0.714-4.963,1.215-7.221,2.489c-0.285,0.161-0.424,0.316-0.439,0.646
		c-0.052,1.094-0.131,2.186-0.205,3.277c-0.083,1.222,0.899,2.401,2.113,2.539c0.505,0.057,1.01,0.098,1.393,0.084
		C33.076,51.104,34.128,50.976,35.169,50.767z"/>
	<path fill-rule="evenodd" clip-rule="evenodd" fill="#070707" d="M103.388,27.455c-0.091-0.206-0.039-0.429-0.079-0.646
		c-0.111-0.598-0.544-0.813-1.021-0.894c-0.534-0.091-0.828-0.746-0.685-1.248c0.179-0.619,0.688-0.81,1.147-1.095
		c1.05-0.65,2.174-1.11,3.38-1.382c1.138-0.257,2.192-0.758,3.276-1.169c0.954-0.362,1.925-0.623,2.939-0.72
		c0.125-0.046,0.264,0.005,0.387-0.051c0.744,0.002,1.488,0.004,2.233,0.006c0.697,0.001,1.141,0.425,1.192,1.123
		c0.044,0.57,0.102,1.139,0.153,1.708c0.038,0.126-0.004,0.261,0.046,0.386c-0.039,0.334,0.011,0.667,0.023,1
		c0.046,0.172-0.016,0.354,0.047,0.524c-0.042,0.542,0.017,1.083,0.02,1.624c0.064,0.451-0.027,0.907,0.049,1.356
		c-0.041,0.111-0.041,0.223,0,0.334c-0.069,0.288,0.006,0.582-0.043,0.871c-0.029,0.905-0.68,1.13-1.462,1.298
		c-0.276,0.06-0.563,0.069-0.845,0.102c-0.125,0.045-0.262-0.002-0.386,0.049c-0.602-0.023-1.19,0.047-1.772,0.203
		c-0.149,0.04-0.189,0.118-0.194,0.232c-0.057,1.297-0.325,2.575-0.358,3.874c-0.013,0.479,0.316,0.728,0.777,0.584
		c0.82-0.257,1.622-0.563,2.416-0.892c0.512-0.212,1.065-0.234,1.607-0.292c0.255-0.027,0.463,0.315,0.375,0.571
		c-0.135,0.394-0.432,0.669-0.729,0.938c-1.239,1.123-2.658,1.957-4.225,2.526c-0.784,0.285-1.132,0.833-1.183,1.623
		c-0.013,0.193-0.007,0.388-0.009,0.581c-0.052,0.125-0.004,0.262-0.049,0.386c-0.008,0.356-0.075,0.713-0.021,1.07
		c-0.055,0.147-0.003,0.306-0.045,0.454c-0.01,0.149-0.018,0.297-0.03,0.496c0.67-0.181,1.313-0.353,1.954-0.526
		c0.527-0.143,1.053-0.285,1.579-0.43c0.278-0.076,0.414,0.156,0.588,0.281c0.614,0.44,0.637,1.114,0.052,1.588
		c-0.447,0.361-0.948,0.658-1.504,0.79c-1.256,0.297-2.434,0.813-3.644,1.24c-0.256,0.09-0.501,0.222-0.763,0.286
		c-0.227,0.056-0.175,0.151-0.098,0.282c0.187,0.313,0.379,0.623,0.56,0.939c0.051,0.091,0.164,0.175,0.077,0.308
		c-0.328,0.502-0.435,1.065-0.504,1.652c-0.064,0.542-0.313,1.036-0.533,1.534c-0.806,1.81-1.662,3.596-2.526,5.378
		c-0.543,1.12-1.251,1.362-2.285,1.278c-0.838-0.068-1.189-0.814-0.821-1.585c0.648-1.355,1.409-2.645,2.211-3.912
		c0.186-0.294,0.313-0.612,0.395-0.957c0.19-0.801,0.671-1.46,1.116-2.129c0.328-0.492,0.651-0.985,0.904-1.521
		c0.073-0.153-0.024-0.179-0.139-0.174c-0.407,0.014-0.814-0.038-1.219,0.029c-0.447-0.06-0.815,0.211-1.23,0.29
		c-0.566,0.108-1.024-0.162-1.507-0.364c-0.07-0.029-0.076-0.074-0.025-0.129c0.016-0.017,0.041-0.029,0.045-0.048
		c0.23-1.018,1.035-1.359,1.904-1.648c0.818-0.272,1.623-0.585,2.438-0.871c0.209-0.073,0.258-0.254,0.275-0.416
		c0.024-0.236,0.071-0.479,0.019-0.719c0.051-0.124,0.004-0.261,0.049-0.387c0.01-0.264,0.064-0.526,0.021-0.792
		c0.05-0.124,0.003-0.261,0.048-0.386c0.01-0.264,0.064-0.527,0.021-0.793c0.05-0.124,0.003-0.261,0.048-0.385
		c0.004-0.034,0.01-0.068,0.012-0.104c0.037-0.716,0.036-0.716-0.639-0.468c-0.422,0.155-0.854,0.265-1.303,0.309
		c-0.148,0.042-0.308-0.01-0.455,0.046c-0.135-0.042-0.27-0.041-0.403-0.001c-0.171-0.061-0.354,0.005-0.525-0.048
		c-0.438-0.032-0.881-0.04-1.315-0.104c-0.29-0.042-0.226-0.354-0.254-0.536c-0.11-0.732,0.489-0.847,0.977-1.021
		c1.167-0.416,2.345-0.803,3.513-1.217c0.274-0.099,0.535-0.243,0.788-0.393c0.392-0.231,0.421-0.643,0.443-1.035
		c0.025-0.473,0.116-0.944,0.084-1.42c0.051-0.125,0.003-0.261,0.048-0.386c0.012-0.264,0.062-0.527,0.018-0.792
		c0.063-0.146,0.004-0.307,0.05-0.455c0.012-0.287,0.063-0.573,0.021-0.861c0.051-0.125,0.011-0.259,0.045-0.385
		c0.034-0.333-0.158-0.094-0.211-0.067c-0.915,0.458-1.824,0.927-2.736,1.392c-0.418,0.213-0.854,0.395-1.253,0.639
		c-0.423,0.259-1.094,0.042-1.342-0.411c-0.207-0.38-0.216-0.769-0.254-1.167c0.061-0.17-0.003-0.353,0.047-0.524
		c0.009-0.356,0.063-0.712,0.022-1.07c0.058-0.147-0.001-0.307,0.048-0.456c0.005-0.31,0.069-0.619,0.021-0.931
		c0.048-0.125,0.009-0.259,0.043-0.385c0.016-0.31,0.063-0.62,0.024-0.931C103.4,27.762,103.35,27.604,103.388,27.455z
		 M109.452,27.25c0.287-1.187,0.577-2.372,0.867-3.558c0.112-0.458-0.094-0.65-0.565-0.517c-1.151,0.326-2.306,0.641-3.438,1.031
		c-0.953,0.328-1.127,0.917-0.449,1.673c0.771,0.86,1.802,1.342,2.791,1.883c0.066,0.037,0.154,0.038,0.214,0.051
		C109.241,27.786,109.378,27.555,109.452,27.25z M114.085,22.367c-0.02-0.178-0.052-0.251-0.245-0.178
		c-0.526,0.201-1.056,0.39-1.585,0.584c-0.098,0.036-0.18,0.063-0.162,0.212c0.143,1.27,0.229,2.546,0.458,3.806
		c0.058,0.313,0.258,0.45,0.53,0.511c0.259,0.058,0.439-0.082,0.581-0.284c0.141-0.201,0.219-0.429,0.279-0.663
		c0.196-0.766,0.229-1.547,0.217-2.332C114.167,23.47,114.146,22.918,114.085,22.367z M105.707,30.242
		c0.467-0.063,0.875-0.117,1.282-0.172c0.097-0.013,0.167-0.051,0.195-0.159c0.03-0.11-0.015-0.17-0.097-0.229
		c-0.333-0.24-0.663-0.484-1.027-0.752C105.938,29.38,105.827,29.794,105.707,30.242z"/>
	<path fill-rule="evenodd" clip-rule="evenodd" fill="#070707" d="M140.063,39.415c-0.062,0.546-0.045,1.099-0.165,1.639
		c-0.198,0.896-0.591,1.698-1.185,2.397c-0.284,0.337-0.425,0.714-0.267,1.14c0.164,0.443,0.544,0.616,0.984,0.679
		c0.885,0.128,1.473,0.638,1.544,1.354c0.05,0.494-0.123,0.902-0.534,1.185c-0.482,0.33-1.022,0.513-1.606,0.563
		c-0.352,0.029-0.702,0.064-1.054,0.098c-0.125,0.043-0.262-0.006-0.386,0.05c-0.266-0.037-0.529,0.006-0.793,0.023
		c-0.126,0.034-0.261-0.007-0.386,0.044c-1.002-0.019-1.989,0.117-2.971,0.298c-1.107,0.204-2.216,0.341-3.348,0.313
		c-0.467-0.013-0.919-0.059-1.336-0.247c-0.804-0.361-1.02-1.096-0.804-1.927c0.148-0.57,0.204-1.153,0.273-1.735
		c0.048-0.399,0.102-0.798,0.152-1.196c0.115-0.912,0.23-1.825,0.336-2.738c0.075-0.65,0.155-1.306,0.253-1.956
		c0.104-0.696,0.134-1.403,0.226-2.102c0.057-0.432,0.108-0.863,0.153-1.297c0.062-0.59,0.119-1.183,0.196-1.77
		c0.07-0.533,0.086-1.073,0.188-1.601c0.051-0.267,0.049-0.543,0.054-0.808c0.021-1.118,0.093-2.236,0.021-3.354
		c0.076-0.287-0.012-0.584,0.051-0.872c0.06-0.844,0.121-1.688,0.179-2.533c0.009-0.135,0.032-0.274-0.021-0.408
		c0.078-0.426-0.012-0.859,0.049-1.287c0.025-0.35,0.045-0.709,0.241-1.01c0.255-0.39,0.9-0.42,1.415-0.077
		c0.616,0.412,0.813,1.046,0.849,1.738c0.041,0.769-0.176,1.524-0.157,2.294c0.003,0.113-0.032,0.228,0.017,0.339
		c-0.063,0.17,0,0.352-0.047,0.524c-0.055,0.73-0.058,0.717,0.634,0.579c1.216-0.242,2.401-0.616,3.626-0.81
		c1.066-0.169,2.009,0.191,2.888,0.749c0.235,0.149,0.154,0.385,0.069,0.589c-0.319,0.773-0.954,1.16-1.72,1.369
		c-0.93,0.254-1.866,0.483-2.794,0.744c-0.341,0.096-0.692,0.125-1.034,0.153c-0.528,0.044-0.8,0.355-0.992,0.771
		c-0.511,1.106-0.866,2.264-1.109,3.458c-0.05,0.245-0.105,0.491-0.075,0.745c-0.052,0.125-0.008,0.26-0.046,0.386
		c-0.052,0.361,0.021,0.706,0.106,1.053c0.177,0.712,0.78,1.115,1.493,1.135c0.758,0.021,1.442-0.239,2.125-0.513
		c0.507-0.205,1.037-0.271,1.576-0.273c0.462-0.003,0.925,0.033,1.385,0.017c1.092-0.041,1.506,0.516,1.673,1.465
		c0.015,0.079,0.02,0.16,0.029,0.239C140.052,39.155,140.011,39.291,140.063,39.415z M131.676,35.521
		c-0.082,0.121-0.046,0.256-0.046,0.386C131.724,35.788,131.669,35.651,131.676,35.521z M135.87,40.166
		c-0.342,0.048-0.68,0.127-0.979,0.313c-0.984,0.609-2.043,0.998-3.207,1.065c-0.199,0.012-0.266,0.076-0.274,0.288
		c-0.048,1.081-0.108,2.162-0.187,3.241c-0.015,0.208,0.054,0.246,0.227,0.287c0.396,0.092,0.796,0.154,1.196,0.163
		c1.253,0.026,2.409-0.356,2.997-1.675c0.561-1.256,1.046-2.546,1.571-3.836C136.759,40.063,136.313,40.104,135.87,40.166z"/>
	<path fill-rule="evenodd" clip-rule="evenodd" fill="#070707" d="M72.966,30.989c0-0.183,0-0.366,0-0.561
		c-1.323,0.326-2.636,0.656-3.905,1.127c-1.908,0.708-3.797,1.468-5.742,2.075c-0.465,0.145-0.936,0.267-1.419,0.244
		c-0.401-0.019-0.797-0.172-0.998-0.54c-0.154-0.282-0.061-0.613,0.138-0.865c0.517-0.653,1.058-1.289,1.883-1.57
		c0.54-0.185,1.076-0.401,1.633-0.509c0.731-0.142,0.949-0.635,1.034-1.267c0.089-0.663,0.209-1.325,0.248-1.991
		c0.042-0.708,0.186-1.408,0.158-2.125c-0.009-0.225,0.088-0.462,0.06-0.701c0.056-0.124,0.006-0.262,0.051-0.386
		c0.001-0.633,0.114-1.26,0.098-1.897c-0.005-0.248,0.087-0.505,0.058-0.767c0.056-0.124,0.008-0.26,0.05-0.386
		c0.051-0.859,0.064-1.723,0.167-2.575c0.068-0.56,0.091-1.142,0.351-1.668c0.192-0.389,0.52-0.596,0.924-0.574
		c0.409,0.022,0.586,0.18,0.75,0.671c0.021,0.065,0.037,0.131,0.056,0.196c0.026,0.138,0.029,0.276-0.002,0.413
		c-0.008,0.311-0.063,0.62-0.021,0.931c-0.051,0.125-0.006,0.261-0.047,0.386c-0.006,0.241-0.013,0.481-0.02,0.723
		c-0.055,0.124-0.009,0.26-0.048,0.385c-0.013,0.184-0.003,0.372-0.044,0.549c-0.078,0.335,0.055,0.321,0.313,0.247
		c1.173-0.341,2.357-0.646,3.524-1.004c0.644-0.198,0.847-0.606,0.931-1.322c0.103-0.875-0.068-1.802,0.416-2.615
		c0.132-0.22,0.274-0.434,0.56-0.502c0.281-0.067,0.486,0.012,0.659,0.234c0.38,0.488,0.49,1.064,0.553,1.654
		c0.039,0.365,0.06,0.732,0.088,1.098c0.047,0.149-0.011,0.309,0.048,0.456c0.009,0.449,0.018,0.898,0.025,1.347
		c0.05,0.265-0.028,0.538,0.046,0.801c-0.083,0.538-0.003,1.077-0.002,1.615c0.008,2.152,0.011,4.303-0.025,6.455
		c-0.002,0.125,0.018,0.249,0.027,0.374c-0.078,0.333,0.009,0.675-0.048,1.009c-0.01,0.634-0.067,1.268-0.025,1.902
		c-0.057,0.171-0.001,0.352-0.042,0.524c-0.009,0.38-0.018,0.759-0.026,1.139c-0.049,0.125-0.007,0.26-0.045,0.386
		c0.05,0.943-0.334,1.665-1.06,2.264c-0.523,0.433-0.495,0.477-0.971-0.017c-0.617-0.637-0.881-1.383-0.661-2.267
		c0.147-0.594,0.3-1.188,0.257-1.81C72.993,31.849,72.906,31.416,72.966,30.989z M68.929,24.618c1.345-0.205,2.687-0.431,4.03-0.64
		c0.197-0.03,0.305-0.155,0.397-0.3c0.374-0.583,0.41-1.211,0.211-1.858c-0.183-0.592-0.323-0.675-0.908-0.474
		c-1.055,0.362-2.103,0.734-3.193,0.996c-0.931,0.224-1.22,0.704-1.199,1.673C68.283,24.702,68.285,24.716,68.929,24.618z
		 M68.624,28.406c-0.022,0.28,0.058,0.353,0.349,0.261c1.119-0.352,2.247-0.678,3.371-1.015c0.822-0.246,0.816-0.247,0.883-1.101
		c0.016-0.213,0.03-0.307-0.254-0.236c-1.262,0.316-2.531,0.601-3.797,0.901c-0.575,0.136-0.574,0.14-0.55,0.74
		C68.626,28.106,68.636,28.257,68.624,28.406z"/>
	<path fill-rule="evenodd" clip-rule="evenodd" d="M5.557,49.251c-2.91,0.416-5.179-2.548-4.759-5.138
		c0.401-2.469,1.317-4.713,2.893-6.671c0.701-0.871,1.296-1.829,2.11-2.605c0.778-0.742,1.692-1.183,2.794-1.157
		c0.092,0.002,0.186,0.008,0.274,0.029c0.749,0.177,0.899,0.593,0.422,1.191c-0.259,0.324-0.545,0.626-0.8,0.954
		c-0.132,0.17-0.264,0.375-0.124,0.601c0.138,0.222,0.357,0.258,0.607,0.229c1.329-0.149,2.523,0.337,3.76,0.723
		c1.77,0.551,2.311,1.851,2.443,3.487c0.155,1.918-0.663,3.399-2.042,4.658c-1.691,1.544-3.653,2.637-5.744,3.514
		c-0.533,0.223-1.139,0.116-1.708,0.184C5.638,49.255,5.591,49.251,5.557,49.251z M6.828,39.374
		c-0.979,0.007-1.609,0.483-1.972,1.384c-0.368,0.915-0.624,1.849-0.667,2.839c-0.054,1.225,0.887,2.122,2.114,1.995
		c0.715-0.074,1.405-0.248,2.053-0.563c1.272-0.619,2.364-1.507,3.496-2.338c0.426-0.313,0.586-0.726,0.61-1.215
		c0.029-0.6-0.248-1.18-0.658-1.308c-1.352-0.424-2.712-0.817-4.282-0.83C7.379,39.346,7.104,39.373,6.828,39.374z"/>
</g>
</svg>
